<svg width="1600" height="700" viewBox="0 0 1600 700" fill="none" xmlns="http://www.w3.org/2000/svg">
  <defs>
    <linearGradient id="sky" x1="0" y1="0" x2="0" y2="1">
      <stop offset="0%" stop-color="#b9c3cf"/>
      <stop offset="55%" stop-color="#e1e4e8"/>
      <stop offset="100%" stop-color="#f5f5f5"/>
    </linearGradient>
    <linearGradient id="ground" x1="0" y1="0" x2="1" y2="1">
      <stop offset="0%" stop-color="#3f4a4f"/>
      <stop offset="100%" stop-color="#1f2326"/>
    </linearGradient>
  </defs>
  <rect width="1600" height="700" fill="url(#sky)"/>
  <rect y="360" width="1600" height="340" fill="url(#ground)"/>
  <rect x="90" y="180" width="240" height="320" fill="#b1b6bc"/>
  <rect x="370" y="140" width="210" height="360" fill="#9aa2a9"/>
  <rect x="620" y="160" width="180" height="340" fill="#b7bcc1"/>
  <rect x="820" y="120" width="230" height="380" fill="#8d959d"/>
  <rect x="1080" y="150" width="240" height="350" fill="#aab1b7"/>
  <rect x="1310" y="120" width="200" height="380" fill="#969da5"/>
  <path d="M0 520 C200 420 360 650 540 520 C700 420 900 640 1100 510 C1250 430 1450 610 1600 520" stroke="#111216" stroke-width="14" fill="none"/>
  <path d="M0 585 C190 470 360 690 540 585 C700 470 900 690 1100 585 C1240 500 1440 670 1600 585" stroke="#1b1f24" stroke-width="10" fill="none"/>
  <circle cx="1240" cy="430" r="56" fill="#1c1f22"/>
  <rect x="1200" y="380" width="80" height="140" rx="36" fill="#2a2f33"/>
  <rect x="1170" y="440" width="140" height="28" rx="14" fill="#2a2f33"/>
  <rect x="1215" y="520" width="50" height="90" rx="16" fill="#121316"/>
  <rect x="1270" y="520" width="50" height="90" rx="16" fill="#121316"/>
</svg>
